<?xml version="1.0" encoding="UTF-8"?>
<svg id="Layer_1" xmlns="http://www.w3.org/2000/svg" version="1.1" viewBox="0 0 32 32">
  <!-- Generator: Adobe Illustrator 29.4.0, SVG Export Plug-In . SVG Version: 2.1.0 Build 152)  -->
  <defs>
    <style>
      .st0 {
        fill: #6bb7e4;
      }
    </style>
  </defs>
  <path class="st0" d="M24.62,7.78v-1.04c0-.58-.47-1.04-1.04-1.04h-4.18c-.58,0-1.04.47-1.04,1.04v1.04H3.73v2.09h14.62v1.04c0,.57.47,1.04,1.04,1.04h4.18c.57,0,1.04-.47,1.04-1.04v-1.04h4.18v-2.09h-4.18ZM22.54,9.87h-2.09v-2.09h2.09v2.09ZM14.18,15.09v-1.04c0-.57-.47-1.04-1.04-1.04h-4.18c-.58,0-1.04.47-1.04,1.04v1.04H3.73v2.09h4.18v1.04c0,.58.47,1.04,1.04,1.04h4.18c.57,0,1.04-.47,1.04-1.04v-1.04h14.62v-2.09h-14.62ZM12.09,17.18h-2.09v-2.09h2.09v2.09ZM22.54,22.4v-1.04c0-.58-.47-1.04-1.04-1.04h-4.18c-.58,0-1.04.47-1.04,1.04v1.04H3.73v2.09h12.53v1.04c0,.58.47,1.04,1.04,1.04h4.18c.58,0,1.04-.47,1.04-1.04v-1.04h6.27v-2.09h-6.27ZM20.45,24.49h-2.09v-2.09h2.09v2.09Z"/>
</svg>