<?xml version="1.0" encoding="UTF-8"?>
<svg id="Layer_1" xmlns="http://www.w3.org/2000/svg" version="1.1" viewBox="0 0 32 32">
  <!-- Generator: Adobe Illustrator 29.4.0, SVG Export Plug-In . SVG Version: 2.1.0 Build 152)  -->
  <defs>
    <style>
      .st0 {
        fill: #6bb7e4;
      }
    </style>
  </defs>
  <path class="st0" d="M26.67,8.69h-2.68v-1.3l-4.03-3.91H5.19c-1.48,0-2.68,1.17-2.68,2.61v15.65c0,1.43,1.21,2.61,2.68,2.61h2.68v2.48c0,1.43,1.21,2.74,2.68,2.74h16.11c1.48,0,2.68-1.3,2.68-2.74v-15.39c0-1.43-1.21-2.74-2.68-2.74ZM14.59,6.08v5.22h-4.03v-5.22h4.03,0ZM5.19,6.08h2.68v6.52c0,.78.54,1.3,1.34,1.3h6.71c.81,0,1.34-.52,1.34-1.3v-6.52h1.61l2.42,2.35v13.3H5.19V6.08ZM26.67,25.38c0,.78-.54,1.43-1.34,1.43h-13.42c-.81,0-1.34-.65-1.34-1.43v-1.04h10.74c1.48,0,2.68-1.17,2.68-2.61v-10.3h1.34c.81,0,1.34.65,1.34,1.43v12.52Z"/>
</svg>