<?xml version="1.0" encoding="UTF-8"?>
<svg id="Layer_1" xmlns="http://www.w3.org/2000/svg" version="1.1" viewBox="0 0 32 32">
  <!-- Generator: Adobe Illustrator 29.4.0, SVG Export Plug-In . SVG Version: 2.1.0 Build 152)  -->
  <defs>
    <style>
      .st0 {
        fill: #6bb7e4;
      }
    </style>
  </defs>
  <path class="st0" d="M27.44,8.41h-2.55v2.5h1.28v10h-1.28v2.5h2.55c.71,0,1.28-.56,1.28-1.25h0v-12.51c0-.69-.57-1.25-1.28-1.25h0ZM4.46,23.41h12.77v-2.5H5.73v-10h11.49v-2.5H4.46c-.71,0-1.28.56-1.28,1.25v12.51c0,.69.57,1.25,1.28,1.25h0Z"/>
  <path class="st0" d="M8.29,13.41h8.94v5h-8.94v-5Z"/>
  <path class="st0" d="M22.33,8.44c.02-.42.28-2.53,3.83-2.53v-2.5c-2.54,0-4.13.84-5.1,1.89-.96-1.05-2.56-1.89-5.12-1.89v2.5c3.58,0,3.82,2.1,3.83,2.5v15c0,.1-.05,2.5-3.83,2.5v2.5c2.56,0,4.16-.84,5.12-1.9.06.07.11.14.18.21,1.14,1.12,2.79,1.69,4.91,1.69v-2.5c-3.58,0-3.82-2.1-3.83-2.5v-14.98Z"/>
</svg>