<?xml version="1.0" encoding="UTF-8"?>
<svg id="Layer_1" xmlns="http://www.w3.org/2000/svg" version="1.1" viewBox="0 0 32 32">
  <!-- Generator: Adobe Illustrator 29.4.0, SVG Export Plug-In . SVG Version: 2.1.0 Build 152)  -->
  <defs>
    <style>
      .st0 {
        fill: #6bb7e4;
      }
    </style>
  </defs>
  <path class="st0" d="M5.68,16.27c0,2.08.59,4.03,1.65,5.71l1.91-1.95c-.59-1.14-.92-2.42-.92-3.76,0-4.44,3.56-8.06,7.92-8.06v4.03s5.28-5.38,5.28-5.38l-5.28-5.38v4.03c-5.81,0-10.56,4.84-10.56,10.75ZM16.24,20.3l-5.28,5.38,5.28,5.38v-4.03c5.81,0,10.56-4.84,10.56-10.75,0-2.08-.59-4.1-1.65-5.71l-1.91,1.95c.59,1.14.92,2.42.92,3.76,0,4.43-3.56,8.06-7.92,8.06v-4.03Z"/>
</svg>